<?xml version="1.0" encoding="UTF-8"?>
<svg version="1.1" xmlns="http://www.w3.org/2000/svg" width="512" height="512">
<path d="M0 0 C6.12771803 5.19435701 9.77781112 10.18780011 10.6875 18.375 C10.11887204 23.87173695 8.5975802 27.93773882 4.4296875 31.69921875 C-12.51178135 43.7525577 -35.75172433 44.2242799 -55.75 44.25 C-56.78840027 44.25250763 -56.78840027 44.25250763 -57.84777832 44.25506592 C-74.76990039 44.25749071 -91.33866408 42.37735238 -107.98730469 39.38037109 C-110.61308904 39.01048212 -113.04078553 38.84624178 -115.6875 39 C-136.05456767 55.29365414 -144.02791062 96.53513776 -149.6875 120 C-140.26017797 118.50598805 -131.23716995 116.01423085 -122.09570312 113.30273438 C-115.83520826 111.534503 -111.06252461 110.41911154 -104.6875 112 C-100.94263078 114.6526157 -99.85831492 116.02635498 -99.0625 120.5625 C-99.6875 124 -99.6875 124 -101.85717773 126.10571289 C-104.83807356 128.10077635 -107.12172128 128.92620708 -110.59765625 129.74609375 C-111.74371338 130.02380615 -112.88977051 130.30151855 -114.07055664 130.58764648 C-115.28477295 130.86809814 -116.49898926 131.1485498 -117.75 131.4375 C-120.2708829 132.04145983 -122.79171588 132.64562802 -125.3125 133.25 C-126.55773437 133.54390625 -127.80296875 133.8378125 -129.0859375 134.140625 C-134.98615175 135.54848523 -140.85918872 137.06287142 -146.73266602 138.57788086 C-149.79382014 139.35213601 -152.51613545 140 -155.6875 140 C-155.77 141.13566406 -155.8525 142.27132812 -155.9375 143.44140625 C-156.79484285 151.07562754 -158.81638175 158.50151752 -160.6875 165.9375 C-160.88657959 166.73212646 -161.08565918 167.52675293 -161.29077148 168.34545898 C-169.90805667 202.52998586 -181.83388448 245.72808961 -213.29296875 266.06640625 C-233.08400671 277.3397823 -255.61498739 281.15145522 -277.88671875 276.109375 C-284.05671546 274.30847154 -289.31900516 271.49330227 -294.6875 268 C-295.39648438 267.54882812 -296.10546875 267.09765625 -296.8359375 266.6328125 C-303.10864412 262.0036098 -307.29847327 253.60148694 -308.6875 246 C-310.04382945 232.48117536 -304.84815758 220.83449662 -296.6171875 210.3671875 C-290.70061242 203.4610807 -284.34028834 198.05722505 -275.6875 195 C-272.875 194.875 -272.875 194.875 -270.6875 195 C-270.9622258 202.41759671 -273.64244653 206.89473296 -277.6875 213 C-278.85562221 214.78109217 -280.0198542 216.56457203 -281.1796875 218.35107422 C-281.95564355 219.54321911 -282.73785644 220.73132341 -283.52734375 221.91455078 C-288.16989009 228.99075587 -291.0862255 235.41935701 -289.6875 244 C-287.62395788 249.48367212 -284.12407896 253.1531965 -279.03515625 255.96875 C-264.94649974 262.15744437 -249.20450163 261.42574735 -235.00390625 255.96875 C-211.00127689 244.88485251 -197.19740661 219.04713382 -188.1875 195.375 C-183.76401239 183.33724971 -180.75607761 170.82206639 -177.57226562 158.4140625 C-176.32378837 153.59653878 -175.0138486 148.79659028 -173.6875 144 C-175.465802 144.44653931 -175.465802 144.44653931 -177.2800293 144.90209961 C-181.68728051 146.00844453 -186.09492361 147.11322108 -190.50268555 148.2175293 C-192.40871702 148.69529273 -194.3146426 149.17347888 -196.22045898 149.65209961 C-198.9630999 150.34079927 -201.70612067 151.02796754 -204.44921875 151.71484375 C-205.29836349 151.92842026 -206.14750824 152.14199677 -207.02238464 152.36204529 C-216.1574934 154.64603797 -225.08114384 156.61539076 -234.375 153.9375 C-236.6875 152 -236.6875 152 -237.875 148.625 C-237.6875 145 -237.6875 145 -235.84375 142.44921875 C-231.49250024 139.07269202 -227.32638094 138.30196095 -222 137.1875 C-219.77328977 136.68946212 -217.54673626 136.19072322 -215.3203125 135.69140625 C-214.11020508 135.42602051 -212.90009766 135.16063477 -211.65332031 134.88720703 C-207.29564622 133.92239363 -202.95660537 132.88324374 -198.6171875 131.83984375 C-197.06992002 131.46909672 -195.52263814 131.09840975 -193.9753418 130.7277832 C-191.68176508 130.17823086 -189.38831154 129.62820568 -187.09536743 129.07601929 C-184.94351789 128.55924011 -182.79033128 128.04843733 -180.63671875 127.5390625 C-179.39237061 127.24209473 -178.14802246 126.94512695 -176.8659668 126.63916016 C-173.6875 126 -173.6875 126 -169.6875 126 C-169.4915625 124.94167969 -169.295625 123.88335937 -169.09375 122.79296875 C-163.44973033 93.60270211 -154.31491981 64.43849933 -138.6875 39 C-137.68623495 37.33409301 -136.68601951 35.66755407 -135.6875 34 C-143.4499471 32.07477659 -151.2133024 30.15327491 -158.97780323 28.23635292 C-162.58419812 27.34587568 -166.19028218 26.45418038 -169.7956543 25.55957031 C-173.28328638 24.69422522 -176.77173655 23.83225095 -180.26074791 22.97248459 C-182.22133671 22.48846061 -184.1810916 22.00106272 -186.14082336 21.51358032 C-202.87437851 17.39804166 -219.99173781 13.19812025 -235.875 22.1875 C-244.20322819 27.82377565 -249.73690635 36.11942281 -251.6875 46 C-252.53180523 56.21470918 -251.14917878 63.75802928 -245.5 72.3125 C-235.42961603 81.93531135 -223.98057727 82.296583 -210.6875 82.0625 C-208.25005653 82.02825912 -205.81255144 81.99807528 -203.375 81.97265625 C-202.30636719 81.95468994 -201.23773438 81.93672363 -200.13671875 81.91821289 C-197.6875 82 -197.6875 82 -196.6875 83 C-196.76885973 87.23070616 -197.19501164 89.41175001 -199.9375 92.6875 C-209.1008586 99.26074061 -220.83425929 99.98235439 -231.6875 99 C-243.34002066 96.96775361 -253.34304082 91.99895571 -260.60546875 82.48828125 C-265.99530082 74.43226359 -269.96428345 65.76342349 -270.6875 56 C-270.7390625 55.36191406 -270.790625 54.72382813 -270.84375 54.06640625 C-271.46212941 40.02404056 -266.53205971 26.53444455 -257.6875 15.75 C-246.66812134 4.23058231 -230.27765418 -1.89367862 -214.52856445 -2.29394531 C-193.34815711 -2.46181589 -173.98512138 3.43889095 -153.93676758 9.67089844 C-137.62769202 15.32099256 -137.62769202 15.32099256 -120.6875 17 C-118.65751915 15.43336423 -118.65751915 15.43336423 -116.9375 13.1875 C-90.44727959 -14.99169419 -32.12063464 -22.87469495 0 0 Z M-97.6875 21 C-97.6875 21.99 -97.6875 22.98 -97.6875 24 C-53.36791145 30.04312002 -53.36791145 30.04312002 -10.6875 20 C-10.0275 19.01 -9.3675 18.02 -8.6875 17 C-33.35249851 -3.26990569 -72.44352246 6.00058184 -97.6875 21 Z " fill="currentColor" transform="translate(450,113) scale(1.2)"/>
</svg>
